<mxfile host="Electron" modified="2024-11-20T11:34:11.078Z" agent="Mozilla/5.0 (Macintosh; Intel Mac OS X 10_15_7) AppleWebKit/537.36 (KHTML, like Gecko) draw.io/21.1.2 Chrome/106.0.5249.199 Electron/21.4.3 Safari/537.36" etag="1iTWRj1FGSAq3QYj3P3Y" version="21.1.2" type="device" pages="5">
  <diagram name="Components" id="2Vq2_04QfSMx-6MHvPtY">
    <mxGraphModel dx="1624" dy="919" grid="1" gridSize="10" guides="1" tooltips="1" connect="1" arrows="1" fold="1" page="0" pageScale="1" pageWidth="1169" pageHeight="1654" math="0" shadow="0">
      <root>
        <mxCell id="0" />
        <mxCell id="1" parent="0" />
        <mxCell id="8pYHIEo_wTONS-sXJfaq-7" value="" style="group" parent="1" vertex="1" connectable="0">
          <mxGeometry x="-10" y="100" width="280" height="230" as="geometry" />
        </mxCell>
        <mxCell id="8pYHIEo_wTONS-sXJfaq-2" value="Power supply&lt;br&gt;" style="shape=cube;whiteSpace=wrap;html=1;boundedLbl=1;backgroundOutline=1;darkOpacity=0.05;darkOpacity2=0.1;fontSize=16;size=40;fillColor=#f8cecc;strokeColor=#b85450;" parent="8pYHIEo_wTONS-sXJfaq-7" vertex="1">
          <mxGeometry width="280" height="230" as="geometry" />
        </mxCell>
        <mxCell id="8pYHIEo_wTONS-sXJfaq-4" value="14" style="text;html=1;align=center;verticalAlign=middle;resizable=0;points=[];autosize=1;strokeColor=none;fillColor=none;fontSize=16;" parent="8pYHIEo_wTONS-sXJfaq-7" vertex="1">
          <mxGeometry x="140" y="180" width="40" height="30" as="geometry" />
        </mxCell>
        <mxCell id="8pYHIEo_wTONS-sXJfaq-5" value="8.5" style="text;html=1;align=center;verticalAlign=middle;resizable=0;points=[];autosize=1;strokeColor=none;fillColor=none;fontSize=16;" parent="8pYHIEo_wTONS-sXJfaq-7" vertex="1">
          <mxGeometry x="20" y="6" width="50" height="30" as="geometry" />
        </mxCell>
        <mxCell id="8pYHIEo_wTONS-sXJfaq-6" value="15" style="text;html=1;align=center;verticalAlign=middle;resizable=0;points=[];autosize=1;strokeColor=none;fillColor=none;fontSize=16;" parent="8pYHIEo_wTONS-sXJfaq-7" vertex="1">
          <mxGeometry x="40" y="120" width="40" height="30" as="geometry" />
        </mxCell>
        <mxCell id="8pYHIEo_wTONS-sXJfaq-12" value="IN" style="ellipse;whiteSpace=wrap;html=1;aspect=fixed;fontSize=16;" parent="8pYHIEo_wTONS-sXJfaq-7" vertex="1">
          <mxGeometry x="5" y="163" width="30" height="30" as="geometry" />
        </mxCell>
        <mxCell id="8pYHIEo_wTONS-sXJfaq-14" value="OUT" style="ellipse;whiteSpace=wrap;html=1;aspect=fixed;fontSize=16;dashed=1;" parent="8pYHIEo_wTONS-sXJfaq-7" vertex="1">
          <mxGeometry x="230" y="163" width="40" height="40" as="geometry" />
        </mxCell>
        <mxCell id="8pYHIEo_wTONS-sXJfaq-29" value="" style="group" parent="1" vertex="1" connectable="0">
          <mxGeometry x="70" y="700" width="335" height="70" as="geometry" />
        </mxCell>
        <mxCell id="8pYHIEo_wTONS-sXJfaq-26" value="Hard disk" style="shape=cube;whiteSpace=wrap;html=1;boundedLbl=1;backgroundOutline=1;darkOpacity=0.05;darkOpacity2=0.1;fontSize=16;size=40;fillColor=#cdeb8b;strokeColor=#36393d;" parent="8pYHIEo_wTONS-sXJfaq-29" vertex="1">
          <mxGeometry width="335" height="70" as="geometry" />
        </mxCell>
        <mxCell id="8pYHIEo_wTONS-sXJfaq-27" value="2.5" style="text;html=1;align=center;verticalAlign=middle;resizable=0;points=[];autosize=1;strokeColor=none;fillColor=none;fontSize=16;" parent="8pYHIEo_wTONS-sXJfaq-29" vertex="1">
          <mxGeometry x="40" y="40" width="50" height="30" as="geometry" />
        </mxCell>
        <mxCell id="8pYHIEo_wTONS-sXJfaq-30" value="CPU" style="shape=cube;whiteSpace=wrap;html=1;boundedLbl=1;backgroundOutline=1;darkOpacity=0.05;darkOpacity2=0.1;fontSize=16;fillColor=#ffff88;strokeColor=#36393d;" parent="1" vertex="1">
          <mxGeometry x="620" y="320" width="90" height="80" as="geometry" />
        </mxCell>
        <mxCell id="DD8WhPxiDAfdUrn-LckN-2" value="" style="group" parent="1" vertex="1" connectable="0">
          <mxGeometry x="-170" y="440" width="470" height="153" as="geometry" />
        </mxCell>
        <mxCell id="8pYHIEo_wTONS-sXJfaq-15" value="Motherboard" style="shape=cube;whiteSpace=wrap;html=1;boundedLbl=1;backgroundOutline=1;darkOpacity=0.05;darkOpacity2=0.1;fontSize=16;size=130;fillColor=#dae8fc;strokeColor=#6c8ebf;" parent="DD8WhPxiDAfdUrn-LckN-2" vertex="1">
          <mxGeometry width="470" height="150" as="geometry" />
        </mxCell>
        <mxCell id="8pYHIEo_wTONS-sXJfaq-16" value="18.5" style="text;html=1;align=center;verticalAlign=middle;resizable=0;points=[];autosize=1;strokeColor=none;fillColor=none;fontSize=16;" parent="DD8WhPxiDAfdUrn-LckN-2" vertex="1">
          <mxGeometry x="410" y="123" width="50" height="30" as="geometry" />
        </mxCell>
        <mxCell id="8pYHIEo_wTONS-sXJfaq-17" value="22.5" style="text;html=1;align=center;verticalAlign=middle;resizable=0;points=[];autosize=1;strokeColor=none;fillColor=none;fontSize=16;" parent="DD8WhPxiDAfdUrn-LckN-2" vertex="1">
          <mxGeometry x="80" y="51.5" width="50" height="30" as="geometry" />
        </mxCell>
        <mxCell id="8pYHIEo_wTONS-sXJfaq-25" value="" style="group" parent="1" vertex="1" connectable="0">
          <mxGeometry x="480" y="450" width="300" height="143" as="geometry" />
        </mxCell>
        <mxCell id="8pYHIEo_wTONS-sXJfaq-21" value="Videocard" style="shape=cube;whiteSpace=wrap;html=1;boundedLbl=1;backgroundOutline=1;darkOpacity=0.05;darkOpacity2=0.1;fontSize=16;fillColor=#ffe6cc;strokeColor=#d79b00;" parent="8pYHIEo_wTONS-sXJfaq-25" vertex="1">
          <mxGeometry y="30" width="300" height="113" as="geometry" />
        </mxCell>
        <mxCell id="8pYHIEo_wTONS-sXJfaq-23" value="9" style="text;html=1;align=center;verticalAlign=middle;resizable=0;points=[];autosize=1;strokeColor=none;fillColor=none;fontSize=16;" parent="8pYHIEo_wTONS-sXJfaq-25" vertex="1">
          <mxGeometry x="20" y="71.5" width="30" height="30" as="geometry" />
        </mxCell>
        <mxCell id="8pYHIEo_wTONS-sXJfaq-22" value="" style="shape=cube;whiteSpace=wrap;html=1;boundedLbl=1;backgroundOutline=1;darkOpacity=0.05;darkOpacity2=0.1;fontSize=16;fillColor=#ffe6cc;strokeColor=#d79b00;" parent="8pYHIEo_wTONS-sXJfaq-25" vertex="1">
          <mxGeometry width="60" height="50" as="geometry" />
        </mxCell>
        <mxCell id="qGD7Pb3mfiBhzUHWAMca-1" value="" style="group" parent="1" vertex="1" connectable="0">
          <mxGeometry x="430" y="100" width="90" height="150" as="geometry" />
        </mxCell>
        <mxCell id="qGD7Pb3mfiBhzUHWAMca-2" style="edgeStyle=none;curved=1;rounded=0;orthogonalLoop=1;jettySize=auto;html=1;fontSize=12;shape=link;" parent="qGD7Pb3mfiBhzUHWAMca-1" source="qGD7Pb3mfiBhzUHWAMca-3" edge="1">
          <mxGeometry relative="1" as="geometry">
            <mxPoint y="75" as="targetPoint" />
          </mxGeometry>
        </mxCell>
        <mxCell id="qGD7Pb3mfiBhzUHWAMca-3" value="IO panel" style="shape=cube;whiteSpace=wrap;html=1;boundedLbl=1;backgroundOutline=1;darkOpacity=0.05;darkOpacity2=0.1;fontSize=16;size=5;direction=east;flipH=0;fillColor=#ffcc99;strokeColor=#36393d;container=0;" parent="qGD7Pb3mfiBhzUHWAMca-1" vertex="1">
          <mxGeometry x="26.47058823529412" width="63.529411764705884" height="150" as="geometry" />
        </mxCell>
        <mxCell id="qGD7Pb3mfiBhzUHWAMca-4" value="12" style="text;html=1;align=center;verticalAlign=middle;resizable=0;points=[];autosize=1;strokeColor=none;fillColor=none;fontSize=16;container=0;" parent="qGD7Pb3mfiBhzUHWAMca-1" vertex="1">
          <mxGeometry x="50.00352941176471" y="110.52803203661328" width="40" height="30" as="geometry" />
        </mxCell>
        <mxCell id="qGD7Pb3mfiBhzUHWAMca-5" value="3" style="text;html=1;align=center;verticalAlign=middle;resizable=0;points=[];autosize=1;strokeColor=none;fillColor=none;fontSize=16;container=0;" parent="qGD7Pb3mfiBhzUHWAMca-1" vertex="1">
          <mxGeometry x="50.294117647058826" y="6.521739130434782" width="30" height="30" as="geometry" />
        </mxCell>
      </root>
    </mxGraphModel>
  </diagram>
  <diagram id="gF5QHLv04w0WYBnabvkH" name="Assembly">
    <mxGraphModel dx="1624" dy="919" grid="1" gridSize="10" guides="1" tooltips="1" connect="1" arrows="1" fold="1" page="0" pageScale="1" pageWidth="1169" pageHeight="1654" math="0" shadow="0">
      <root>
        <mxCell id="0" />
        <mxCell id="1" parent="0" />
        <mxCell id="gB466EXt1ib5nuxhEWya-2" value="" style="group" parent="1" vertex="1" connectable="0">
          <mxGeometry x="-40" y="100" width="280" height="230" as="geometry" />
        </mxCell>
        <mxCell id="gB466EXt1ib5nuxhEWya-3" value="" style="group" parent="gB466EXt1ib5nuxhEWya-2" vertex="1" connectable="0">
          <mxGeometry width="280" height="230" as="geometry" />
        </mxCell>
        <mxCell id="gB466EXt1ib5nuxhEWya-4" value="" style="group" parent="gB466EXt1ib5nuxhEWya-3" vertex="1" connectable="0">
          <mxGeometry width="280" height="230" as="geometry" />
        </mxCell>
        <mxCell id="WYYGM50AHvkvBPG8NKDc-2" value="Power supply&lt;br&gt;" style="shape=cube;whiteSpace=wrap;html=1;boundedLbl=1;backgroundOutline=1;darkOpacity=0.05;darkOpacity2=0.1;fontSize=16;size=40;fillColor=#f8cecc;strokeColor=#b85450;container=0;" parent="gB466EXt1ib5nuxhEWya-4" vertex="1">
          <mxGeometry width="280" height="230" as="geometry" />
        </mxCell>
        <mxCell id="gB466EXt1ib5nuxhEWya-1" value="4" style="text;html=1;align=center;verticalAlign=middle;resizable=0;points=[];autosize=1;strokeColor=none;fillColor=none;fontSize=16;container=0;" parent="gB466EXt1ib5nuxhEWya-4" vertex="1">
          <mxGeometry x="35" y="193" width="30" height="30" as="geometry" />
        </mxCell>
        <mxCell id="WYYGM50AHvkvBPG8NKDc-11" value="CPU" style="shape=cube;whiteSpace=wrap;html=1;boundedLbl=1;backgroundOutline=1;darkOpacity=0.05;darkOpacity2=0.1;fontSize=16;fillColor=#ffff88;strokeColor=#36393d;opacity=50;container=0;" parent="1" vertex="1">
          <mxGeometry x="168" y="239" width="90" height="80" as="geometry" />
        </mxCell>
        <mxCell id="WYYGM50AHvkvBPG8NKDc-9" value="Hard disk" style="shape=cube;whiteSpace=wrap;html=1;boundedLbl=1;backgroundOutline=1;darkOpacity=0.05;darkOpacity2=0.1;fontSize=16;size=40;fillColor=#cdeb8b;strokeColor=#36393d;opacity=40;container=0;" parent="1" vertex="1">
          <mxGeometry x="76" y="340" width="335" height="70" as="geometry" />
        </mxCell>
        <mxCell id="WYYGM50AHvkvBPG8NKDc-21" style="edgeStyle=none;curved=1;rounded=0;orthogonalLoop=1;jettySize=auto;html=1;fontSize=12;shape=link;" parent="1" source="WYYGM50AHvkvBPG8NKDc-22" edge="1">
          <mxGeometry relative="1" as="geometry">
            <mxPoint x="250" y="185" as="targetPoint" />
          </mxGeometry>
        </mxCell>
        <mxCell id="WYYGM50AHvkvBPG8NKDc-22" value="IO panel" style="shape=cube;whiteSpace=wrap;html=1;boundedLbl=1;backgroundOutline=1;darkOpacity=0.05;darkOpacity2=0.1;fontSize=16;size=5;direction=east;flipH=0;fillColor=#ffcc99;strokeColor=#36393d;container=0;" parent="1" vertex="1">
          <mxGeometry x="276.47058823529414" y="110" width="63.529411764705884" height="150" as="geometry" />
        </mxCell>
        <mxCell id="WYYGM50AHvkvBPG8NKDc-23" value="12" style="text;html=1;align=center;verticalAlign=middle;resizable=0;points=[];autosize=1;strokeColor=none;fillColor=none;fontSize=16;container=0;" parent="1" vertex="1">
          <mxGeometry x="300.0035294117647" y="220.5280320366133" width="40" height="30" as="geometry" />
        </mxCell>
        <mxCell id="WYYGM50AHvkvBPG8NKDc-24" value="3" style="text;html=1;align=center;verticalAlign=middle;resizable=0;points=[];autosize=1;strokeColor=none;fillColor=none;fontSize=16;container=0;" parent="1" vertex="1">
          <mxGeometry x="300.29411764705884" y="116.52173913043478" width="30" height="30" as="geometry" />
        </mxCell>
        <mxCell id="WYYGM50AHvkvBPG8NKDc-3" value="14" style="text;html=1;align=center;verticalAlign=middle;resizable=0;points=[];autosize=1;strokeColor=none;fillColor=none;fontSize=16;container=0;" parent="1" vertex="1">
          <mxGeometry x="100" y="280" width="40" height="30" as="geometry" />
        </mxCell>
        <mxCell id="WYYGM50AHvkvBPG8NKDc-4" value="8.5" style="text;html=1;align=center;verticalAlign=middle;resizable=0;points=[];autosize=1;strokeColor=none;fillColor=none;fontSize=16;container=0;" parent="1" vertex="1">
          <mxGeometry x="-20" y="106" width="50" height="30" as="geometry" />
        </mxCell>
        <mxCell id="WYYGM50AHvkvBPG8NKDc-5" value="15" style="text;html=1;align=center;verticalAlign=middle;resizable=0;points=[];autosize=1;strokeColor=none;fillColor=none;fontSize=16;container=0;" parent="1" vertex="1">
          <mxGeometry y="220" width="40" height="30" as="geometry" />
        </mxCell>
        <mxCell id="WYYGM50AHvkvBPG8NKDc-6" value="IN" style="ellipse;whiteSpace=wrap;html=1;aspect=fixed;fontSize=16;container=0;" parent="1" vertex="1">
          <mxGeometry x="-35" y="263" width="30" height="30" as="geometry" />
        </mxCell>
        <mxCell id="WYYGM50AHvkvBPG8NKDc-7" value="OUT" style="ellipse;whiteSpace=wrap;html=1;aspect=fixed;fontSize=16;dashed=1;container=0;" parent="1" vertex="1">
          <mxGeometry x="190" y="263" width="40" height="40" as="geometry" />
        </mxCell>
        <mxCell id="WYYGM50AHvkvBPG8NKDc-13" value="Motherboard" style="shape=cube;whiteSpace=wrap;html=1;boundedLbl=1;backgroundOutline=1;darkOpacity=0.05;darkOpacity2=0.1;fontSize=16;size=130;fillColor=#dae8fc;strokeColor=#6c8ebf;opacity=60;container=0;" parent="1" vertex="1">
          <mxGeometry y="260" width="470" height="150" as="geometry" />
        </mxCell>
        <mxCell id="WYYGM50AHvkvBPG8NKDc-14" value="18.5" style="text;html=1;align=center;verticalAlign=middle;resizable=0;points=[];autosize=1;strokeColor=none;fillColor=none;fontSize=16;container=0;" parent="1" vertex="1">
          <mxGeometry x="410" y="383" width="50" height="30" as="geometry" />
        </mxCell>
        <mxCell id="WYYGM50AHvkvBPG8NKDc-15" value="22.5" style="text;html=1;align=center;verticalAlign=middle;resizable=0;points=[];autosize=1;strokeColor=none;fillColor=none;fontSize=16;container=0;" parent="1" vertex="1">
          <mxGeometry x="80" y="311.5" width="50" height="30" as="geometry" />
        </mxCell>
        <mxCell id="WYYGM50AHvkvBPG8NKDc-17" value="Videocard" style="shape=cube;whiteSpace=wrap;html=1;boundedLbl=1;backgroundOutline=1;darkOpacity=0.05;darkOpacity2=0.1;fontSize=16;fillColor=#ffe6cc;strokeColor=#d79b00;opacity=70;container=0;" parent="1" vertex="1">
          <mxGeometry x="81" y="248" width="300" height="113" as="geometry" />
        </mxCell>
        <mxCell id="WYYGM50AHvkvBPG8NKDc-18" value="9" style="text;html=1;align=center;verticalAlign=middle;resizable=0;points=[];autosize=1;strokeColor=none;fillColor=none;fontSize=16;container=0;" parent="1" vertex="1">
          <mxGeometry x="101" y="289.5" width="30" height="30" as="geometry" />
        </mxCell>
        <mxCell id="WYYGM50AHvkvBPG8NKDc-19" value="" style="shape=cube;whiteSpace=wrap;html=1;boundedLbl=1;backgroundOutline=1;darkOpacity=0.05;darkOpacity2=0.1;fontSize=16;fillColor=#ffe6cc;strokeColor=#d79b00;opacity=70;container=0;" parent="1" vertex="1">
          <mxGeometry x="81" y="218" width="60" height="50" as="geometry" />
        </mxCell>
        <mxCell id="R4rLf2u85mtZlga5jtsR-1" value="2.5" style="text;html=1;align=center;verticalAlign=middle;resizable=0;points=[];autosize=1;strokeColor=none;fillColor=none;fontSize=16;container=0;" parent="1" vertex="1">
          <mxGeometry x="118" y="380" width="50" height="30" as="geometry" />
        </mxCell>
      </root>
    </mxGraphModel>
  </diagram>
  <diagram id="D4QaOOvMduWm-33-0Ekj" name="Case">
    <mxGraphModel dx="1624" dy="919" grid="1" gridSize="10" guides="1" tooltips="1" connect="1" arrows="1" fold="1" page="0" pageScale="1" pageWidth="1169" pageHeight="1654" math="0" shadow="0">
      <root>
        <mxCell id="0" />
        <mxCell id="1" parent="0" />
        <mxCell id="6-mfSWH0bgmIfnxPcgBj-3" value="" style="group;" parent="1" vertex="1" connectable="0">
          <mxGeometry x="-80" y="80" width="650" height="510" as="geometry" />
        </mxCell>
        <mxCell id="dZAW1jplsWlVICkdnv6n-1" value="" style="shape=cube;whiteSpace=wrap;html=1;boundedLbl=1;backgroundOutline=1;darkOpacity=0.05;darkOpacity2=0.1;fontSize=16;size=220;fillColor=#cdeb8b;strokeColor=#36393d;" parent="6-mfSWH0bgmIfnxPcgBj-3" vertex="1">
          <mxGeometry width="640" height="510" as="geometry" />
        </mxCell>
        <mxCell id="W7F5i2lsMtbPabhyxXp3-1" value="32 (33.6)" style="text;html=1;align=center;verticalAlign=middle;resizable=0;points=[];autosize=1;strokeColor=none;fillColor=none;fontSize=16;" parent="6-mfSWH0bgmIfnxPcgBj-3" vertex="1">
          <mxGeometry x="90" y="350" width="90" height="30" as="geometry" />
        </mxCell>
        <mxCell id="GRHSPcYNFIiYjTb1AeDt-1" value="16 (17.2)" style="text;html=1;align=center;verticalAlign=middle;resizable=0;points=[];autosize=1;strokeColor=none;fillColor=none;fontSize=16;" parent="6-mfSWH0bgmIfnxPcgBj-3" vertex="1">
          <mxGeometry y="150" width="90" height="30" as="geometry" />
        </mxCell>
        <mxCell id="6-mfSWH0bgmIfnxPcgBj-2" value="20 (21.6)" style="text;html=1;align=center;verticalAlign=middle;resizable=0;points=[];autosize=1;strokeColor=none;fillColor=none;fontSize=16;" parent="6-mfSWH0bgmIfnxPcgBj-3" vertex="1">
          <mxGeometry x="365" y="480" width="90" height="30" as="geometry" />
        </mxCell>
        <mxCell id="u9QP29U6rxNrfQOse622-2" value="Front&lt;br&gt;(IO)" style="shape=parallelogram;perimeter=parallelogramPerimeter;whiteSpace=wrap;html=1;fixedSize=1;fontSize=16;flipV=1;size=220;flipH=1;rotation=90;fillColor=#f8cecc;strokeColor=#b85450;dashed=1;fillOpacity=50;" vertex="1" parent="6-mfSWH0bgmIfnxPcgBj-3">
          <mxGeometry x="274" y="145" width="510" height="220" as="geometry" />
        </mxCell>
      </root>
    </mxGraphModel>
  </diagram>
  <diagram id="yenIEQfekCRchK8QQ4X2" name="Plywood cutting">
    <mxGraphModel dx="1379" dy="735" grid="1" gridSize="10" guides="1" tooltips="1" connect="1" arrows="1" fold="1" page="0" pageScale="1" pageWidth="1169" pageHeight="1654" math="0" shadow="0">
      <root>
        <mxCell id="0" />
        <mxCell id="1" parent="0" />
        <mxCell id="-igRQj64I-RkAom_4mxJ-1" value="" style="group" vertex="1" connectable="0" parent="1">
          <mxGeometry x="-130" y="170" width="600" height="118" as="geometry" />
        </mxCell>
        <mxCell id="Fn5t6ZwxbrMp_9hn2H2I-18" value="" style="group" vertex="1" connectable="0" parent="-igRQj64I-RkAom_4mxJ-1">
          <mxGeometry y="13" width="598" height="105" as="geometry" />
        </mxCell>
        <mxCell id="Fn5t6ZwxbrMp_9hn2H2I-3" value="Plywood" style="shape=trapezoid;perimeter=trapezoidPerimeter;whiteSpace=wrap;html=1;fixedSize=1;fontSize=16;size=45.2000000000001;rotation=0;arcSize=20;" vertex="1" parent="Fn5t6ZwxbrMp_9hn2H2I-18">
          <mxGeometry x="58" width="540" height="60" as="geometry" />
        </mxCell>
        <mxCell id="Fn5t6ZwxbrMp_9hn2H2I-17" value="" style="verticalLabelPosition=bottom;verticalAlign=top;html=1;shape=mxgraph.basic.arc;startAngle=0.13162762230663558;endAngle=0.2674369402488821;fontSize=16;" vertex="1" parent="Fn5t6ZwxbrMp_9hn2H2I-18">
          <mxGeometry y="5" width="100" height="100" as="geometry" />
        </mxCell>
        <mxCell id="Fn5t6ZwxbrMp_9hn2H2I-19" value="45" style="text;html=1;align=center;verticalAlign=middle;resizable=0;points=[];autosize=1;strokeColor=none;fillColor=none;fontSize=16;" vertex="1" parent="Fn5t6ZwxbrMp_9hn2H2I-18">
          <mxGeometry x="90" y="25" width="40" height="30" as="geometry" />
        </mxCell>
        <mxCell id="Fn5t6ZwxbrMp_9hn2H2I-23" value="" style="endArrow=classic;startArrow=classic;html=1;rounded=0;fontSize=12;startSize=8;endSize=8;curved=1;entryX=0.75;entryY=0;entryDx=0;entryDy=0;exitX=0.75;exitY=1;exitDx=0;exitDy=0;" edge="1" parent="Fn5t6ZwxbrMp_9hn2H2I-18" source="Fn5t6ZwxbrMp_9hn2H2I-3" target="Fn5t6ZwxbrMp_9hn2H2I-3">
          <mxGeometry width="50" height="50" relative="1" as="geometry">
            <mxPoint x="330" y="40" as="sourcePoint" />
            <mxPoint x="380" y="-10" as="targetPoint" />
          </mxGeometry>
        </mxCell>
        <mxCell id="Fn5t6ZwxbrMp_9hn2H2I-24" value="b cm" style="edgeLabel;html=1;align=center;verticalAlign=middle;resizable=0;points=[];fontSize=16;" vertex="1" connectable="0" parent="Fn5t6ZwxbrMp_9hn2H2I-23">
          <mxGeometry x="0.0067" y="-2" relative="1" as="geometry">
            <mxPoint as="offset" />
          </mxGeometry>
        </mxCell>
        <mxCell id="Fn5t6ZwxbrMp_9hn2H2I-21" value="" style="endArrow=classic;startArrow=classic;html=1;rounded=0;fontSize=12;startSize=8;endSize=8;curved=1;" edge="1" parent="-igRQj64I-RkAom_4mxJ-1">
          <mxGeometry width="50" height="50" relative="1" as="geometry">
            <mxPoint x="100" as="sourcePoint" />
            <mxPoint x="550" as="targetPoint" />
          </mxGeometry>
        </mxCell>
        <mxCell id="Fn5t6ZwxbrMp_9hn2H2I-22" value="a cm" style="edgeLabel;html=1;align=center;verticalAlign=middle;resizable=0;points=[];fontSize=16;" vertex="1" connectable="0" parent="Fn5t6ZwxbrMp_9hn2H2I-21">
          <mxGeometry x="0.0302" y="3" relative="1" as="geometry">
            <mxPoint as="offset" />
          </mxGeometry>
        </mxCell>
        <mxCell id="Fn5t6ZwxbrMp_9hn2H2I-25" value="" style="endArrow=classic;startArrow=classic;html=1;rounded=0;fontSize=12;startSize=8;endSize=8;curved=1;" edge="1" parent="-igRQj64I-RkAom_4mxJ-1">
          <mxGeometry width="50" height="50" relative="1" as="geometry">
            <mxPoint x="600" y="88" as="sourcePoint" />
            <mxPoint x="60" y="88" as="targetPoint" />
          </mxGeometry>
        </mxCell>
        <mxCell id="Fn5t6ZwxbrMp_9hn2H2I-26" value="a+2b cm" style="edgeLabel;html=1;align=center;verticalAlign=middle;resizable=0;points=[];fontSize=16;" vertex="1" connectable="0" parent="Fn5t6ZwxbrMp_9hn2H2I-25">
          <mxGeometry x="0.1563" y="-1" relative="1" as="geometry">
            <mxPoint as="offset" />
          </mxGeometry>
        </mxCell>
      </root>
    </mxGraphModel>
  </diagram>
  <diagram id="gXWywtdcODeUUlTJRZMe" name="Front (IO)">
    <mxGraphModel dx="1624" dy="1319" grid="1" gridSize="10" guides="1" tooltips="1" connect="1" arrows="1" fold="1" page="0" pageScale="1" pageWidth="1169" pageHeight="1654" math="0" shadow="0">
      <root>
        <mxCell id="0" />
        <mxCell id="1" parent="0" />
        <mxCell id="3IjYHS-7zW-SsBYfZTTe-1" value="" style="group;align=left;fontSize=6;" vertex="1" connectable="0" parent="1">
          <mxGeometry x="-30" y="-30" width="672" height="344" as="geometry" />
        </mxCell>
        <mxCell id="3IjYHS-7zW-SsBYfZTTe-2" value="Front&lt;br style=&quot;font-size: 13px;&quot;&gt;(IO)" style="rounded=0;whiteSpace=wrap;html=1;fontSize=13;fillColor=#f8cecc;strokeColor=#b85450;align=center;spacingLeft=-600;" vertex="1" parent="3IjYHS-7zW-SsBYfZTTe-1">
          <mxGeometry y="-1" width="672" height="344" as="geometry" />
        </mxCell>
        <mxCell id="3IjYHS-7zW-SsBYfZTTe-3" value="" style="rounded=0;whiteSpace=wrap;html=1;fontSize=16;fillColor=none;dashed=1;dashPattern=12 12;" vertex="1" parent="3IjYHS-7zW-SsBYfZTTe-1">
          <mxGeometry x="16" y="12" width="640" height="320" as="geometry" />
        </mxCell>
        <mxCell id="b8B4ZPqyH649QjOVCX6G-1" value="" style="rounded=0;whiteSpace=wrap;html=1;fontSize=16;fillColor=#fad7ac;strokeColor=#b46504;direction=south;" vertex="1" parent="3IjYHS-7zW-SsBYfZTTe-1">
          <mxGeometry x="392" y="243" width="240" height="60" as="geometry" />
        </mxCell>
        <mxCell id="Bo0rXwvXijCDVugQ1DZV-2" value="R" style="ellipse;whiteSpace=wrap;html=1;aspect=fixed;fontSize=16;fillColor=#e51400;fontColor=#ffffff;strokeColor=#B20000;" vertex="1" parent="3IjYHS-7zW-SsBYfZTTe-1">
          <mxGeometry x="597" y="105" width="30" height="30" as="geometry" />
        </mxCell>
        <mxCell id="Bo0rXwvXijCDVugQ1DZV-1" value="P" style="ellipse;whiteSpace=wrap;html=1;aspect=fixed;fontSize=16;fillColor=#008a00;fontColor=#ffffff;strokeColor=#005700;" vertex="1" parent="3IjYHS-7zW-SsBYfZTTe-1">
          <mxGeometry x="597" y="46" width="30" height="30" as="geometry" />
        </mxCell>
        <mxCell id="Bo0rXwvXijCDVugQ1DZV-6" value="&lt;font style=&quot;font-size: 10px;&quot;&gt;2x2&lt;/font&gt;" style="rounded=0;whiteSpace=wrap;html=1;fontSize=13;fillColor=none;dashed=1;" vertex="1" parent="3IjYHS-7zW-SsBYfZTTe-1">
          <mxGeometry x="632" y="303" width="40" height="40" as="geometry" />
        </mxCell>
        <mxCell id="Bo0rXwvXijCDVugQ1DZV-7" value="3x3" style="rounded=0;whiteSpace=wrap;html=1;fontSize=10;fillColor=none;dashed=1;" vertex="1" parent="3IjYHS-7zW-SsBYfZTTe-1">
          <mxGeometry x="612" width="60" height="60" as="geometry" />
        </mxCell>
        <mxCell id="Bo0rXwvXijCDVugQ1DZV-8" value="3x3" style="rounded=0;whiteSpace=wrap;html=1;fontSize=10;fillColor=none;dashed=1;" vertex="1" parent="3IjYHS-7zW-SsBYfZTTe-1">
          <mxGeometry x="612" y="60" width="60" height="60" as="geometry" />
        </mxCell>
        <mxCell id="Bo0rXwvXijCDVugQ1DZV-3" value="" style="ellipse;whiteSpace=wrap;html=1;aspect=fixed;fontSize=16;" vertex="1" parent="1">
          <mxGeometry width="5" height="5" as="geometry" />
        </mxCell>
      </root>
    </mxGraphModel>
  </diagram>
</mxfile>
